<svg xmlns="http://www.w3.org/2000/svg" xmlns:svg="http://www.w3.org/2000/svg" id="svg945" version="1.1" viewBox="0 0 392.5 392.5"><metadata id="metadata949"/><defs id="defs921"><linearGradient id="a" x1="196.25" x2="196.25" y1="7.91" y2="41.54" gradientTransform="matrix(1, 0, 0, -1, 0, 394)" gradientUnits="userSpaceOnUse"><stop id="stop833" offset="0" stop-color="#fff"/><stop id="stop835" offset=".14" stop-color="#fff" stop-opacity=".99"/><stop id="stop837" offset=".27" stop-color="#fff" stop-opacity=".94"/><stop id="stop839" offset=".39" stop-color="#fff" stop-opacity=".87"/><stop id="stop841" offset=".51" stop-color="#fff" stop-opacity=".77"/><stop id="stop843" offset=".63" stop-color="#fff" stop-opacity=".64"/><stop id="stop845" offset=".74" stop-color="#fff" stop-opacity=".48"/><stop id="stop847" offset=".85" stop-color="#fff" stop-opacity=".29"/><stop id="stop849" offset=".96" stop-color="#fff" stop-opacity=".08"/><stop id="stop851" offset="1" stop-color="#fff" stop-opacity="0"/></linearGradient><linearGradient id="b" x1="198.57" x2="198.57" y1="59.17" y2="156.86" gradientTransform="matrix(1, 0, 0, -1, 0, 394)" gradientUnits="userSpaceOnUse"><stop id="stop854" offset="0" stop-color="#fff"/><stop id="stop856" offset=".19" stop-color="#fff" stop-opacity=".99"/><stop id="stop858" offset=".32" stop-color="#fff" stop-opacity=".95"/><stop id="stop860" offset=".44" stop-color="#fff" stop-opacity=".89"/><stop id="stop862" offset=".54" stop-color="#fff" stop-opacity=".8"/><stop id="stop864" offset=".64" stop-color="#fff" stop-opacity=".69"/><stop id="stop866" offset=".74" stop-color="#fff" stop-opacity=".55"/><stop id="stop868" offset=".83" stop-color="#fff" stop-opacity=".39"/><stop id="stop870" offset=".92" stop-color="#fff" stop-opacity=".21"/><stop id="stop872" offset="1" stop-color="#fff" stop-opacity="0"/></linearGradient><linearGradient id="c" x1="196.25" x2="196.25" y1="142.48" y2="253" gradientTransform="matrix(1, 0, 0, -1, 0, 394)" gradientUnits="userSpaceOnUse"><stop id="stop875" offset="0" stop-color="#fff"/><stop id="stop877" offset=".19" stop-color="#fff" stop-opacity=".99"/><stop id="stop879" offset=".33" stop-color="#fff" stop-opacity=".95"/><stop id="stop881" offset=".44" stop-color="#fff" stop-opacity=".89"/><stop id="stop883" offset=".55" stop-color="#fff" stop-opacity=".81"/><stop id="stop885" offset=".65" stop-color="#fff" stop-opacity=".7"/><stop id="stop887" offset=".74" stop-color="#fff" stop-opacity=".56"/><stop id="stop889" offset=".83" stop-color="#fff" stop-opacity=".4"/><stop id="stop891" offset=".92" stop-color="#fff" stop-opacity=".22"/><stop id="stop893" offset="1" stop-color="#fff" stop-opacity=".01"/><stop id="stop895" offset="1" stop-color="#fff" stop-opacity="0"/></linearGradient><linearGradient id="d" x1="198.57" x2="198.57" y1="238.61" y2="336.33" gradientTransform="matrix(1, 0, 0, -1, 0, 394)" gradientUnits="userSpaceOnUse"><stop id="stop898" offset="0" stop-color="#fff"/><stop id="stop900" offset=".2" stop-color="#fff" stop-opacity=".99"/><stop id="stop902" offset=".34" stop-color="#fff" stop-opacity=".95"/><stop id="stop904" offset=".45" stop-color="#fff" stop-opacity=".9"/><stop id="stop906" offset=".56" stop-color="#fff" stop-opacity=".81"/><stop id="stop908" offset=".65" stop-color="#fff" stop-opacity=".7"/><stop id="stop910" offset=".74" stop-color="#fff" stop-opacity=".57"/><stop id="stop912" offset=".83" stop-color="#fff" stop-opacity=".41"/><stop id="stop914" offset=".91" stop-color="#fff" stop-opacity=".23"/><stop id="stop916" offset=".99" stop-color="#fff" stop-opacity=".03"/><stop id="stop918" offset="1" stop-color="#fff" stop-opacity="0"/></linearGradient><filter id="filter1075" style="color-interpolation-filters:sRGB"><feColorMatrix id="feColorMatrix1071" result="color1" type="hueRotate" values="180"/><feColorMatrix id="feColorMatrix1073" result="fbSourceGraphic" values="-1 0 0 0 1 0 -1 0 0 1 0 0 -1 0 1 -0.21 -0.72 -0.07 2 0"/><feColorMatrix id="feColorMatrix1131" in="fbSourceGraphic" result="fbSourceGraphicAlpha" values="0 0 0 -1 0 0 0 0 -1 0 0 0 0 -1 0 0 0 0 1 0"/><feColorMatrix id="feColorMatrix1133" in="fbSourceGraphic" result="color1" type="hueRotate" values="180"/><feColorMatrix id="feColorMatrix1135" result="fbSourceGraphic" values="-1 0 0 0 1 0 -1 0 0 1 0 0 -1 0 1 -0.21 -0.72 -0.07 2 0"/><feColorMatrix id="feColorMatrix1191" in="fbSourceGraphic" result="fbSourceGraphicAlpha" values="0 0 0 -1 0 0 0 0 -1 0 0 0 0 -1 0 0 0 0 1 0"/><feColorMatrix id="feColorMatrix1193" in="fbSourceGraphic" result="color1" type="hueRotate" values="180"/><feColorMatrix id="feColorMatrix1195" result="color2" values="-1 0 0 0 1 0 -1 0 0 1 0 0 -1 0 1 -0.21 -0.72 -0.07 2 0"/></filter><filter id="filter1081" style="color-interpolation-filters:sRGB"><feColorMatrix id="feColorMatrix1077" result="color1" type="hueRotate" values="180"/><feColorMatrix id="feColorMatrix1079" result="fbSourceGraphic" values="-1 0 0 0 1 0 -1 0 0 1 0 0 -1 0 1 -0.21 -0.72 -0.07 2 0"/><feColorMatrix id="feColorMatrix1137" in="fbSourceGraphic" result="fbSourceGraphicAlpha" values="0 0 0 -1 0 0 0 0 -1 0 0 0 0 -1 0 0 0 0 1 0"/><feColorMatrix id="feColorMatrix1139" in="fbSourceGraphic" result="color1" type="hueRotate" values="180"/><feColorMatrix id="feColorMatrix1141" result="fbSourceGraphic" values="-1 0 0 0 1 0 -1 0 0 1 0 0 -1 0 1 -0.21 -0.72 -0.07 2 0"/><feColorMatrix id="feColorMatrix1197" in="fbSourceGraphic" result="fbSourceGraphicAlpha" values="0 0 0 -1 0 0 0 0 -1 0 0 0 0 -1 0 0 0 0 1 0"/><feColorMatrix id="feColorMatrix1199" in="fbSourceGraphic" result="color1" type="hueRotate" values="180"/><feColorMatrix id="feColorMatrix1201" result="color2" values="-1 0 0 0 1 0 -1 0 0 1 0 0 -1 0 1 -0.21 -0.72 -0.07 2 0"/></filter><filter id="filter1087" style="color-interpolation-filters:sRGB"><feColorMatrix id="feColorMatrix1083" result="color1" type="hueRotate" values="180"/><feColorMatrix id="feColorMatrix1085" result="fbSourceGraphic" values="-1 0 0 0 1 0 -1 0 0 1 0 0 -1 0 1 -0.21 -0.72 -0.07 2 0"/><feColorMatrix id="feColorMatrix1143" in="fbSourceGraphic" result="fbSourceGraphicAlpha" values="0 0 0 -1 0 0 0 0 -1 0 0 0 0 -1 0 0 0 0 1 0"/><feColorMatrix id="feColorMatrix1145" in="fbSourceGraphic" result="color1" type="hueRotate" values="180"/><feColorMatrix id="feColorMatrix1147" result="fbSourceGraphic" values="-1 0 0 0 1 0 -1 0 0 1 0 0 -1 0 1 -0.21 -0.72 -0.07 2 0"/><feColorMatrix id="feColorMatrix1203" in="fbSourceGraphic" result="fbSourceGraphicAlpha" values="0 0 0 -1 0 0 0 0 -1 0 0 0 0 -1 0 0 0 0 1 0"/><feColorMatrix id="feColorMatrix1205" in="fbSourceGraphic" result="color1" type="hueRotate" values="180"/><feColorMatrix id="feColorMatrix1207" result="color2" values="-1 0 0 0 1 0 -1 0 0 1 0 0 -1 0 1 -0.21 -0.72 -0.07 2 0"/></filter><filter id="filter1093" style="color-interpolation-filters:sRGB"><feColorMatrix id="feColorMatrix1089" result="color1" type="hueRotate" values="180"/><feColorMatrix id="feColorMatrix1091" result="fbSourceGraphic" values="-1 0 0 0 1 0 -1 0 0 1 0 0 -1 0 1 -0.21 -0.72 -0.07 2 0"/><feColorMatrix id="feColorMatrix1149" in="fbSourceGraphic" result="fbSourceGraphicAlpha" values="0 0 0 -1 0 0 0 0 -1 0 0 0 0 -1 0 0 0 0 1 0"/><feColorMatrix id="feColorMatrix1151" in="fbSourceGraphic" result="color1" type="hueRotate" values="180"/><feColorMatrix id="feColorMatrix1153" result="fbSourceGraphic" values="-1 0 0 0 1 0 -1 0 0 1 0 0 -1 0 1 -0.21 -0.72 -0.07 2 0"/><feColorMatrix id="feColorMatrix1209" in="fbSourceGraphic" result="fbSourceGraphicAlpha" values="0 0 0 -1 0 0 0 0 -1 0 0 0 0 -1 0 0 0 0 1 0"/><feColorMatrix id="feColorMatrix1211" in="fbSourceGraphic" result="color1" type="hueRotate" values="180"/><feColorMatrix id="feColorMatrix1213" result="color2" values="-1 0 0 0 1 0 -1 0 0 1 0 0 -1 0 1 -0.21 -0.72 -0.07 2 0"/></filter><filter id="filter1099" style="color-interpolation-filters:sRGB"><feColorMatrix id="feColorMatrix1095" result="color1" type="hueRotate" values="180"/><feColorMatrix id="feColorMatrix1097" result="fbSourceGraphic" values="-1 0 0 0 1 0 -1 0 0 1 0 0 -1 0 1 -0.21 -0.72 -0.07 2 0"/><feColorMatrix id="feColorMatrix1155" in="fbSourceGraphic" result="fbSourceGraphicAlpha" values="0 0 0 -1 0 0 0 0 -1 0 0 0 0 -1 0 0 0 0 1 0"/><feColorMatrix id="feColorMatrix1157" in="fbSourceGraphic" result="color1" type="hueRotate" values="180"/><feColorMatrix id="feColorMatrix1159" result="fbSourceGraphic" values="-1 0 0 0 1 0 -1 0 0 1 0 0 -1 0 1 -0.21 -0.72 -0.07 2 0"/><feColorMatrix id="feColorMatrix1215" in="fbSourceGraphic" result="fbSourceGraphicAlpha" values="0 0 0 -1 0 0 0 0 -1 0 0 0 0 -1 0 0 0 0 1 0"/><feColorMatrix id="feColorMatrix1217" in="fbSourceGraphic" result="color1" type="hueRotate" values="180"/><feColorMatrix id="feColorMatrix1219" result="color2" values="-1 0 0 0 1 0 -1 0 0 1 0 0 -1 0 1 -0.21 -0.72 -0.07 2 0"/></filter><filter id="filter1105" style="color-interpolation-filters:sRGB"><feColorMatrix id="feColorMatrix1101" result="color1" type="hueRotate" values="180"/><feColorMatrix id="feColorMatrix1103" result="fbSourceGraphic" values="-1 0 0 0 1 0 -1 0 0 1 0 0 -1 0 1 -0.21 -0.72 -0.07 2 0"/><feColorMatrix id="feColorMatrix1161" in="fbSourceGraphic" result="fbSourceGraphicAlpha" values="0 0 0 -1 0 0 0 0 -1 0 0 0 0 -1 0 0 0 0 1 0"/><feColorMatrix id="feColorMatrix1163" in="fbSourceGraphic" result="color1" type="hueRotate" values="180"/><feColorMatrix id="feColorMatrix1165" result="fbSourceGraphic" values="-1 0 0 0 1 0 -1 0 0 1 0 0 -1 0 1 -0.21 -0.72 -0.07 2 0"/><feColorMatrix id="feColorMatrix1221" in="fbSourceGraphic" result="fbSourceGraphicAlpha" values="0 0 0 -1 0 0 0 0 -1 0 0 0 0 -1 0 0 0 0 1 0"/><feColorMatrix id="feColorMatrix1223" in="fbSourceGraphic" result="color1" type="hueRotate" values="180"/><feColorMatrix id="feColorMatrix1225" result="color2" values="-1 0 0 0 1 0 -1 0 0 1 0 0 -1 0 1 -0.21 -0.72 -0.07 2 0"/></filter><filter id="filter1111" style="color-interpolation-filters:sRGB"><feColorMatrix id="feColorMatrix1107" result="color1" type="hueRotate" values="180"/><feColorMatrix id="feColorMatrix1109" result="fbSourceGraphic" values="-1 0 0 0 1 0 -1 0 0 1 0 0 -1 0 1 -0.21 -0.72 -0.07 2 0"/><feColorMatrix id="feColorMatrix1167" in="fbSourceGraphic" result="fbSourceGraphicAlpha" values="0 0 0 -1 0 0 0 0 -1 0 0 0 0 -1 0 0 0 0 1 0"/><feColorMatrix id="feColorMatrix1169" in="fbSourceGraphic" result="color1" type="hueRotate" values="180"/><feColorMatrix id="feColorMatrix1171" result="fbSourceGraphic" values="-1 0 0 0 1 0 -1 0 0 1 0 0 -1 0 1 -0.21 -0.72 -0.07 2 0"/><feColorMatrix id="feColorMatrix1227" in="fbSourceGraphic" result="fbSourceGraphicAlpha" values="0 0 0 -1 0 0 0 0 -1 0 0 0 0 -1 0 0 0 0 1 0"/><feColorMatrix id="feColorMatrix1229" in="fbSourceGraphic" result="color1" type="hueRotate" values="180"/><feColorMatrix id="feColorMatrix1231" result="color2" values="-1 0 0 0 1 0 -1 0 0 1 0 0 -1 0 1 -0.21 -0.72 -0.07 2 0"/></filter><filter id="filter1117" style="color-interpolation-filters:sRGB"><feColorMatrix id="feColorMatrix1113" result="color1" type="hueRotate" values="180"/><feColorMatrix id="feColorMatrix1115" result="fbSourceGraphic" values="-1 0 0 0 1 0 -1 0 0 1 0 0 -1 0 1 -0.21 -0.72 -0.07 2 0"/><feColorMatrix id="feColorMatrix1173" in="fbSourceGraphic" result="fbSourceGraphicAlpha" values="0 0 0 -1 0 0 0 0 -1 0 0 0 0 -1 0 0 0 0 1 0"/><feColorMatrix id="feColorMatrix1175" in="fbSourceGraphic" result="color1" type="hueRotate" values="180"/><feColorMatrix id="feColorMatrix1177" result="fbSourceGraphic" values="-1 0 0 0 1 0 -1 0 0 1 0 0 -1 0 1 -0.21 -0.72 -0.07 2 0"/><feColorMatrix id="feColorMatrix1233" in="fbSourceGraphic" result="fbSourceGraphicAlpha" values="0 0 0 -1 0 0 0 0 -1 0 0 0 0 -1 0 0 0 0 1 0"/><feColorMatrix id="feColorMatrix1235" in="fbSourceGraphic" result="color1" type="hueRotate" values="180"/><feColorMatrix id="feColorMatrix1237" result="color2" values="-1 0 0 0 1 0 -1 0 0 1 0 0 -1 0 1 -0.21 -0.72 -0.07 2 0"/></filter><filter id="filter1123" style="color-interpolation-filters:sRGB"><feColorMatrix id="feColorMatrix1119" result="color1" type="hueRotate" values="180"/><feColorMatrix id="feColorMatrix1121" result="fbSourceGraphic" values="-1 0 0 0 1 0 -1 0 0 1 0 0 -1 0 1 -0.21 -0.72 -0.07 2 0"/><feColorMatrix id="feColorMatrix1179" in="fbSourceGraphic" result="fbSourceGraphicAlpha" values="0 0 0 -1 0 0 0 0 -1 0 0 0 0 -1 0 0 0 0 1 0"/><feColorMatrix id="feColorMatrix1181" in="fbSourceGraphic" result="color1" type="hueRotate" values="180"/><feColorMatrix id="feColorMatrix1183" result="fbSourceGraphic" values="-1 0 0 0 1 0 -1 0 0 1 0 0 -1 0 1 -0.21 -0.72 -0.07 2 0"/><feColorMatrix id="feColorMatrix1239" in="fbSourceGraphic" result="fbSourceGraphicAlpha" values="0 0 0 -1 0 0 0 0 -1 0 0 0 0 -1 0 0 0 0 1 0"/><feColorMatrix id="feColorMatrix1241" in="fbSourceGraphic" result="color1" type="hueRotate" values="180"/><feColorMatrix id="feColorMatrix1243" result="color2" values="-1 0 0 0 1 0 -1 0 0 1 0 0 -1 0 1 -0.21 -0.72 -0.07 2 0"/></filter><filter id="filter1129" style="color-interpolation-filters:sRGB"><feColorMatrix id="feColorMatrix1125" result="color1" type="hueRotate" values="180"/><feColorMatrix id="feColorMatrix1127" result="fbSourceGraphic" values="-1 0 0 0 1 0 -1 0 0 1 0 0 -1 0 1 -0.21 -0.72 -0.07 2 0"/><feColorMatrix id="feColorMatrix1185" in="fbSourceGraphic" result="fbSourceGraphicAlpha" values="0 0 0 -1 0 0 0 0 -1 0 0 0 0 -1 0 0 0 0 1 0"/><feColorMatrix id="feColorMatrix1187" in="fbSourceGraphic" result="color1" type="hueRotate" values="180"/><feColorMatrix id="feColorMatrix1189" result="fbSourceGraphic" values="-1 0 0 0 1 0 -1 0 0 1 0 0 -1 0 1 -0.21 -0.72 -0.07 2 0"/><feColorMatrix id="feColorMatrix1245" in="fbSourceGraphic" result="fbSourceGraphicAlpha" values="0 0 0 -1 0 0 0 0 -1 0 0 0 0 -1 0 0 0 0 1 0"/><feColorMatrix id="feColorMatrix1247" in="fbSourceGraphic" result="color1" type="hueRotate" values="180"/><feColorMatrix id="feColorMatrix1249" result="color2" values="-1 0 0 0 1 0 -1 0 0 1 0 0 -1 0 1 -0.21 -0.72 -0.07 2 0"/></filter></defs><title id="title923">qiskit-logo</title><path style="filter:url(#filter1075)" id="path925" fill="url(#a)" d="M196.2,386.1c-23.5,0-48.8-5.3-48.8-16.8s25.3-16.8,48.8-16.8,48.9,5.2,48.9,16.8S219.8,386.1,196.2,386.1Zm0-25.6c-26.7,0-40.2,6.4-40.8,8.8s14.1,8.8,40.8,8.8,40.2-6.4,40.9-8.8S222.9,360.5,196.2,360.5Z"/><rect style="filter:url(#filter1081)" id="rect927" width="8" height="307.03" x="197.6" y="40.9" fill="#fff" transform="translate(-73.9 144.1) rotate(-33.6)"/><path style="filter:url(#filter1087)" id="path929" fill="url(#b)" d="M198.6,334.8c-43.7,0-85-4.7-116-13.3C40.8,310,32,295.8,32,286s8.8-24,50.6-35.6c31-8.5,72.2-13.3,116-13.3s85,4.8,116,13.3c41.8,11.6,50.5,25.7,50.5,35.6s-8.7,24-50.5,35.6C283.6,330.1,242.4,334.8,198.6,334.8Zm0-89.7c-43,0-83.5,4.6-113.9,13C56.8,265.8,40,276.2,40,286s16.7,20.1,44.7,27.9c30.4,8.3,70.8,13,113.9,13s83.6-4.7,113.9-13c28-7.8,44.7-18.2,44.7-27.9s-16.7-20.1-44.7-27.9c-30.3-8.4-70.8-13-113.9-13Z"/><rect style="filter:url(#filter1093)" id="rect931" width="8" height="100.69" x="140.4" y="58.3" fill="#fff" transform="translate(-35.9 97.5) rotate(-33.4)"/><path style="filter:url(#filter1099)" id="path933" fill="url(#c)" d="M196.2,251.5c-50,0-97-5.4-132.4-15.1-47.4-13.1-57.4-29-57.4-40.2s10-27,57.4-40.1c35.4-9.7,82.5-15.1,132.4-15.1s97,5.4,132.5,15.2c47.4,13,57.4,29,57.4,40.1s-10,27-57.4,40.1C293.3,246.1,246.2,251.5,196.2,251.5Zm0-102.5c-49.2,0-95.5,5.3-130.3,14.9-32.2,8.9-51.5,21-51.5,32.3s19.3,23.6,51.5,32.4c34.8,9.6,81.1,14.9,130.3,14.9s95.6-5.3,130.4-14.9c32.2-8.8,51.5-21,51.5-32.4s-19.3-23.4-51.5-32.3c-34.8-9.6-81.1-14.9-130.4-14.9Z"/><path style="filter:url(#filter1105)" id="path935" fill="url(#d)" d="M198.6,155.4c-43.7,0-85-4.7-116-13.3C40.8,130.6,32,116.4,32,106.5s8.8-24,50.6-35.5c31-8.6,72.2-13.3,116-13.3s85,4.7,116,13.3c41.8,11.5,50.5,25.7,50.5,35.5s-8.7,24.1-50.5,35.6C283.6,150.7,242.4,155.4,198.6,155.4Zm0-89.7c-43,0-83.5,4.6-113.9,13C56.8,86.4,40,96.8,40,106.5s16.7,20.2,44.7,27.9c30.4,8.4,70.8,13,113.9,13s83.6-4.6,113.9-13c28-7.7,44.7-18.1,44.7-27.9s-16.7-20.1-44.7-27.8C282.2,70.3,241.7,65.7,198.6,65.7Z"/><path style="filter:url(#filter1111)" id="path937" fill="#fff" d="M196.2,40c-23.5,0-48.8-5.3-48.8-16.8S172.7,6.4,196.2,6.4s48.9,5.3,48.9,16.8S219.8,40,196.2,40Zm0-25.6c-26.7,0-40.2,6.4-40.8,8.8S169.5,32,196.2,32s40.2-6.3,40.9-8.8-14.2-8.8-40.9-8.8Z"/><path style="filter:url(#filter1117)" id="path939" fill="#fff" d="M196.2,392.5C88,392.5,0,304.5,0,196.2S88,0,196.2,0,392.5,88,392.5,196.2,304.5,392.5,196.2,392.5ZM196.2,8C92.4,8,8,92.4,8,196.2S92.4,384.5,196.2,384.5,384.5,300,384.5,196.2,300,8,196.2,8Z"/><circle style="filter:url(#filter1123)" id="circle941" cx="286.7" cy="320.9" r="19.2" fill="#fff"/><circle style="filter:url(#filter1129)" id="circle943" cx="115.8" cy="67" r="19.2" fill="#fff"/></svg>